# xmcd
#
# Track frame offsets: 
#        150
#        23410
#        44842
#
# Disc length: 1025 seconds
#
# Revision: 2
# Processed by: cddbd v1.5.2PL0 Copyright (c) Steve Scherf et al.
# Submitted via: ExactAudioCopy v1.0b6
#
DISCID=1d03ff03
DTITLE=Björk - Biophilia Remixes Part Six
DYEAR=2012
DGENRE=Electronic
TTITLE0=Mutual Core (Matthew Herbert's Teutonic Plates Mix)
TTITLE1=Sacrifice (Matthew Herbert's Pins And Needles Mix)
TTITLE2=Virus (Matthew Herbert's Fever Mix)
EXTD=
EXTT0=
EXTT1=
EXTT2=
PLAYORDER=
